<svg xmlns="http://www.w3.org/2000/svg" xmlns:xlink="http://www.w3.org/1999/xlink" fill="none" version="1.1" width="16.00000335862825" height="15.937746558698564" viewBox="0 0 16.00000335862825 15.937746558698564"><defs><clipPath id="master_svg0_8_160"><rect x="0.0000033586282484066032" y="0" width="16" height="15.937743186950684" rx="7.968871593475342"/></clipPath></defs><g transform="matrix(1,2.107342425006209e-7,-2.107342425006209e-7,1,0,-7.077779797691527e-13)" clip-path="url(#master_svg0_8_160)"><rect x="0.0000033586282484066032" y="0" width="16" height="15.937743186950684" rx="7.968871593475342" fill="#FF7E86" fill-opacity="0.20000000298023224"/><g transform="matrix(0.7071067690849304,0.7071068286895752,0.7071068286895752,-0.7071067690849304,-5.65689516313998,13.656952009494834)"><path d="M4.812138961464857,14.01443103515625L4.930268961464857,14.13359103515625Q4.9775289614648575,14.18126103515625,5.0247789614648575,14.22296103515625Q5.072038961464857,14.264671035156251,5.119288961464857,14.31233103515625L5.261058961464857,14.455331035156249Q5.4973289614648575,14.69365103515625,5.4500789614648575,14.872401035156251Q5.402818961464857,15.051141035156249,5.154738961464857,15.28947103515625Q5.048408961464857,15.408631035156251,4.806228961464857,15.65291103515625Q4.564048961464858,15.89720103515625,4.286428961464857,16.18319103515625Q4.008798961464858,16.46918103515625,3.748898961464857,16.731331035156252Q3.488998961464857,16.99349103515625,3.3472289614648574,17.148401035156247Q3.1345889614648574,17.362891035156252,3.0518889614648574,17.523761035156248Q2.9691889614648574,17.68464103515625,3.1227689614648573,17.839551035156248Q3.229098961464857,17.946791035156252,3.3944889614648575,18.125561035156252Q3.5598789614648574,18.30426103515625,3.6780189614648573,18.42346103515625Q3.878848961464857,18.626061035156248,3.8256889614648575,18.780961035156253Q3.7725289614648574,18.93586103515625,3.4771889614648575,18.959661035156252Q3.1700289614648574,18.99546103515625,2.7919889614648574,19.04306103515625Q2.4139489614648575,19.09076103515625,2.0122789614648573,19.13246103515625Q1.6106189614648574,19.17416103515625,1.2266689614648574,19.22186103515625Q0.8427219614648573,19.269461035156247,0.5237509614648573,19.30526103515625Q0.2165939614648573,19.340961035156248,0.0984567614648573,19.22776103515625Q-0.019680638535142708,19.11456103515625,0.003946891464857293,18.82856103515625Q0.027574361464857294,18.53066103515625,0.0689224614648573,18.16126103515625Q0.11027096146485729,17.79188103515625,0.15752496146485728,17.40460103515625Q0.2047799614648573,17.01732103515625,0.2461279614648573,16.636001035156248Q0.28747596146485727,16.25468103515625,0.3229179614648573,15.93295103515625Q0.3583589614648573,15.58738103515625,0.5178439614648573,15.49204103515625Q0.6773299614648572,15.396711035156251,0.8781629614648573,15.59929103515625Q0.9962999614648573,15.71845103515625,1.1853189614648574,15.89124103515625Q1.3743389614648573,16.06402103515625,1.5042889614648574,16.19510103515625Q1.6342389614648574,16.32618103515625,1.7523789614648573,16.278521035156253Q1.8705189614648572,16.23085103515625,2.0240989614648575,16.08786103515625Q2.1776689614648572,15.93295103515625,2.4434789614648573,15.658871035156249Q2.7092889614648574,15.38480103515625,2.9987289614648573,15.09285103515625Q3.2881689614648573,14.80090103515625,3.5598789614648574,14.52087103515625Q3.831598961464857,14.24084103515625,3.9969889614648575,14.07401103515625Q4.067868961464857,14.00251103515625,4.156478961464857,13.936971035156251Q4.245078961464857,13.871431035156249,4.351398961464858,13.84760103515625Q4.457728961464857,13.82377103515625,4.569958961464858,13.85952103515625Q4.682188961464857,13.895271035156249,4.812138961464857,14.01443103515625ZM10.789908961464857,8.00864072515625Q11.097008961464857,7.97289193515625,11.215208961464857,8.08609633515625Q11.333308961464857,8.19930103515625,11.309708961464857,8.48529103515625Q11.286108961464857,8.78319703515625,11.244708961464857,9.15260103515625Q11.203408961464858,9.52200103515625,11.156108961464858,9.90928103515625Q11.108808961464858,10.29656103515625,11.067508961464858,10.68384103515625Q11.026208961464857,11.07112103515625,10.990708961464858,11.39285103515625Q10.955308961464857,11.73843103515625,10.795808961464857,11.82780103515625Q10.636308961464858,11.917171035156251,10.435508961464857,11.71459103515625Q10.317308961464857,11.595431035156249,10.110608961464857,11.40477103515625Q9.903858961464858,11.21411103515625,9.773898961464857,11.08303103515625Q9.643948961464858,10.95195103515625,9.549438961464856,10.96983103515625Q9.454928961464857,10.987701035156249,9.313168961464857,11.13070103515625Q9.147778961464857,11.297521035156251,8.881968961464857,11.57160103515625Q8.616158961464857,11.84567103515625,8.320818961464857,12.14954103515625Q8.025468961464858,12.45340103515625,7.741938961464857,12.739391035156249L7.304828961464858,13.18029103515625Q7.233948961464857,13.25179103515625,7.151258961464857,13.323291035156249Q7.068558961464857,13.39478103515625,6.968138961464858,13.43053103515625Q6.867728961464858,13.46628103515625,6.755498961464857,13.44245103515625Q6.643268961464857,13.41862103515625,6.5251289614648575,13.28754103515625L6.076208961464857,12.83472103515625Q5.8399289614648575,12.59640103515625,5.869468961464857,12.39978103515625Q5.898998961464858,12.20316103515625,6.1352789614648575,11.96483103515625Q6.241598961464858,11.85759103515625,6.489688961464857,11.60139103515625Q6.7377789614648576,11.345191035156251,7.021308961464857,11.05920103515625Q7.304838961464857,10.77321103515625,7.570648961464857,10.49914103515625Q7.836448961464857,10.22506103515625,7.990028961464858,10.08207103515625Q8.202678961464857,9.86757103515625,8.255838961464857,9.73054103515625Q8.308998961464857,9.59350103515625,8.155418961464857,9.43859103515625Q8.049098961464857,9.33134103515625,7.901428961464857,9.17643103515625Q7.753758961464857,9.02152103515625,7.635618961464857,8.90235903515625Q7.434788961464857,8.69978303515625,7.487948961464857,8.54487203515625Q7.541108961464857,8.38996003515625,7.836448961464857,8.35421203515625Q8.131798961464858,8.31846303515625,8.515738961464857,8.27079803515625Q8.899688961464857,8.22313303515625,9.301358961464857,8.18142603515625Q9.703018961464858,8.13971903515625,10.087008961464857,8.09205413515625Q10.470908961464858,8.04438913515625,10.789908961464857,8.00864072515625Z" fill="#FF7E86" fill-opacity="1"/></g></g></svg>