<svg xmlns="http://www.w3.org/2000/svg" xmlns:xlink="http://www.w3.org/1999/xlink" fill="none" version="1.1" width="16" height="16" viewBox="0 0 16 16"><defs><clipPath id="master_svg0_8_208"><rect x="0" y="0" width="16" height="16" rx="8"/></clipPath></defs><g clip-path="url(#master_svg0_8_208)"><rect x="0" y="0" width="16" height="16" rx="8" fill="#A162F7" fill-opacity="0.20000000298023224"/><g><path d="M7.95463,3.000101873C7.71671,3.220167,7.47882,3.5136089999999998,6.55717,4.71156C6.11104,5.322760000000001,5.72464,5.88511,5.36775,6.44745C4.683876,7.54771,4,9.03912,4,9.9926C4.0297087,10.823979999999999,4.416278,11.53299,5.18942,12.11976C5.9921,12.70656,6.91389,13,8.014050000000001,13C9.1142,13,10.06567,12.70656,10.8387,12.09536C11.64152,11.48404,12.02812,10.77506,11.99841,9.94379C11.998380000000001,7.42549,7.92478,2.9756727,7.95463,3.000101873Z" fill="#A162F7" fill-opacity="1"/></g></g></svg>