<svg xmlns="http://www.w3.org/2000/svg" xmlns:xlink="http://www.w3.org/1999/xlink" fill="none" version="1.1" width="16" height="16" viewBox="0 0 16 16"><defs><clipPath id="master_svg0_8_156"><rect x="0" y="0" width="16" height="16" rx="8"/></clipPath></defs><g clip-path="url(#master_svg0_8_156)"><rect x="0" y="0" width="16" height="16" rx="8" fill="#4ABDAC" fill-opacity="0.20000000298023224"/><g><path d="M11.76799419921875,7.491201376953125L9.58399419921875,7.491201376953125C9.38719419921875,7.491201376953125,9.23679419921875,7.313601376953125,9.26879419921875,7.120001376953125L10.04639419921875,2.356798376953125C10.09759419921875,2.044798876953125,9.71199419921875,1.855998376953125,9.49599419921875,2.086398376953125L3.99839189921875,7.969601376953125C3.80799219921875,8.174401376953124,3.95199179921875,8.508801376953125,4.23199219921875,8.508801376953125L6.4159941992187495,8.508801376953125C6.61279419921875,8.508801376953125,6.76319419921875,8.686401376953125,6.73119419921875,8.880001376953125L5.953594199218751,13.643161376953126C5.90239419921875,13.955161376953125,6.287994199218749,14.143961376953126,6.50399419921875,13.913561376953124L12.00159419921875,8.030401376953126C12.19359419921875,7.825601376953125,12.04799419921875,7.491201376953125,11.76799419921875,7.491201376953125Z" fill="#4ABDAC" fill-opacity="1"/></g></g></svg>